<?xml version="1.0" encoding="UTF-8" standalone="no"?>
<svg
   xmlns:dc="http://purl.org/dc/elements/1.1/"
   xmlns:cc="http://creativecommons.org/ns#"
   xmlns:rdf="http://www.w3.org/1999/02/22-rdf-syntax-ns#"
   xmlns:svg="http://www.w3.org/2000/svg"
   xmlns="http://www.w3.org/2000/svg"
   xmlns:sodipodi="http://sodipodi.sourceforge.net/DTD/sodipodi-0.dtd"
   xmlns:inkscape="http://www.inkscape.org/namespaces/inkscape"
   height="512"
   version="1.1"
   width="512"
   id="svg3547"
   inkscape:version="0.91 r13725"
   sodipodi:docname="solid_component.svg">
  <metadata
     id="metadata4328">
    <rdf:RDF>
      <cc:Work
         rdf:about="">
        <dc:format>image/svg+xml</dc:format>
        <dc:type
           rdf:resource="http://purl.org/dc/dcmitype/StillImage" />
      </cc:Work>
    </rdf:RDF>
  </metadata>
  <sodipodi:namedview
     pagecolor="#ffffff"
     bordercolor="#666666"
     borderopacity="1"
     objecttolerance="10"
     gridtolerance="10"
     guidetolerance="10"
     inkscape:pageopacity="0"
     inkscape:pageshadow="2"
     inkscape:window-width="1535"
     inkscape:window-height="876"
     id="namedview4326"
     showgrid="false"
     inkscape:zoom="1.3037281"
     inkscape:cx="202.66295"
     inkscape:cy="270.97161"
     inkscape:window-x="65"
     inkscape:window-y="24"
     inkscape:window-maximized="1"
     inkscape:current-layer="svg3547" />
  <defs
     id="defs3567" />
  <g
     transform="matrix(16.135216,0,0,13.355606,64.331405,-13641.769)"
     id="g3549">
    <path
       d="m 3,1031.4 0,10 c 0,4.2 3.6322,8 9,10 5.368,-2 9,-5.8 9,-10 l 0,-10 -18,0 z"
       id="path3551"
       style="fill:#7f8c8d"
       inkscape:connector-curvature="0" />
    <path
       d="m 3,1030.4 0,10 c 0,4.2 3.6322,8 9,10 5.368,-2 9,-5.8 9,-10 l 0,-10 -18,0 z"
       id="path3553"
       style="fill:#bdc3c7"
       inkscape:connector-curvature="0" />
    <path
       d="m 3,1030.4 0,10 c 0,4.2 3.6322,8 9,10 l 0,-20 -9,0 z"
       id="path3555"
       style="fill:#95a5a6"
       inkscape:connector-curvature="0" />
    <path
       d="m 5,1032.4 0,8 c 0,3.4 2.8251,6.4 7,8 4.175,-1.6 7,-4.6 7,-8 l 0,-8 -14,0 z"
       id="path3557"
       style="fill:#ecf0f1"
       inkscape:connector-curvature="0" />
    <path
       d="m 5,1040.4 c 0,3.4 2.8251,6.4 7,8 l 0,-8 -7,0 z"
       id="path3559"
       style="fill:#2980b9"
       inkscape:connector-curvature="0" />
    <rect
       height="8"
       transform="translate(0,1028.4)"
       width="7"
       x="12"
       y="4"
       id="rect3561"
       style="fill:#3498db" />
    <rect
       height="8"
       transform="translate(0,1028.4)"
       width="7"
       x="5"
       y="4"
       id="rect3563"
       style="fill:#bdc3c7" />
  </g>
</svg>
