<?xml version="1.0" encoding="UTF-8" standalone="no"?>
<svg
   xmlns:dc="http://purl.org/dc/elements/1.1/"
   xmlns:cc="http://creativecommons.org/ns#"
   xmlns:rdf="http://www.w3.org/1999/02/22-rdf-syntax-ns#"
   xmlns:svg="http://www.w3.org/2000/svg"
   xmlns="http://www.w3.org/2000/svg"
   xmlns:sodipodi="http://sodipodi.sourceforge.net/DTD/sodipodi-0.dtd"
   xmlns:inkscape="http://www.inkscape.org/namespaces/inkscape"
   height="512"
   version="1.1"
   width="512"
   id="svg3547"
>

  <defs
     id="defs3567" />
  <g
     transform="matrix(22.015787,0,0,17.957793,-6.2354551,-18404.715)"
     id="g3549">
    <path
       d="m 3,1031.4 0,10 c 0,4.2 3.6322,8 9,10 5.368,-2 9,-5.8 9,-10 l 0,-10 -18,0 z"
       id="path3551"
       style="fill:#7f8c8d" />
    <path
       d="m 3,1030.4 0,10 c 0,4.2 3.6322,8 9,10 5.368,-2 9,-5.8 9,-10 l 0,-10 -18,0 z"
       id="path3553"
       style="fill:#bdc3c7" />
    <path
       d="m 3,1030.4 0,10 c 0,4.2 3.6322,8 9,10 l 0,-20 -9,0 z"
       id="path3555"
       style="fill:#95a5a6" />
    <path
       d="m 5,1032.4 0,8 c 0,3.4 2.8251,6.4 7,8 4.175,-1.6 7,-4.6 7,-8 l 0,-8 -14,0 z"
       id="path3557"
       style="fill:#ecf0f1" />
    <path
       d="m 5,1040.4 c 0,3.4 2.8251,6.4 7,8 l 0,-8 -7,0 z"
       id="path3559"
       style="fill:#2980b9" />
    <rect
       height="8"
       transform="translate(0,1028.4)"
       width="7"
       x="12"
       y="4"
       id="rect3561"
       style="fill:#3498db" />
    <rect
       height="8"
       transform="translate(0,1028.4)"
       width="7"
       x="5"
       y="4"
       id="rect3563"
       style="fill:#bdc3c7" />
  </g>
</svg>
