<?xml version="1.0" encoding="UTF-8" standalone="no"?>
<svg
   xmlns:dc="http://purl.org/dc/elements/1.1/"
   xmlns:cc="http://creativecommons.org/ns#"
   xmlns:rdf="http://www.w3.org/1999/02/22-rdf-syntax-ns#"
   xmlns:svg="http://www.w3.org/2000/svg"
   xmlns="http://www.w3.org/2000/svg"
   xmlns:sodipodi="http://sodipodi.sourceforge.net/DTD/sodipodi-0.dtd"
   xmlns:inkscape="http://www.inkscape.org/namespaces/inkscape"
   width="371"
   height="344"
   viewBox="0 0 371 344"
   id="svg3523"
   version="1.1"
   inkscape:version="0.91 r13725"
   sodipodi:docname="404.svg">
  <metadata
     id="metadata3689">
    <rdf:RDF>
      <cc:Work
         rdf:about="">
        <dc:format>image/svg+xml</dc:format>
        <dc:type
           rdf:resource="http://purl.org/dc/dcmitype/StillImage" />
      </cc:Work>
    </rdf:RDF>
  </metadata>
  <defs
     id="defs3687" />
  <sodipodi:namedview
     pagecolor="#ffffff"
     bordercolor="#666666"
     borderopacity="1"
     objecttolerance="10"
     gridtolerance="10"
     guidetolerance="10"
     inkscape:pageopacity="0"
     inkscape:pageshadow="2"
     inkscape:window-width="1535"
     inkscape:window-height="876"
     id="namedview3685"
     showgrid="false"
     inkscape:zoom="6.076185"
     inkscape:cx="137.08199"
     inkscape:cy="174.34809"
     inkscape:window-x="65"
     inkscape:window-y="24"
     inkscape:window-maximized="1"
     inkscape:current-layer="svg3523" />
  <style
     id="style3525">.a{fill:#FFF;}.b{fill:#1D1E1C;}.c{fill:#1D1E1C;opacity:0.2;}.d{fill:#38A9B4;}.e{fill:#070707;}.f{fill:#197175;}.g{fill:#0E5656;}.h{fill:#332E27;}</style>
  <ellipse
     cx="161.5"
     cy="292.7"
     rx="116"
     ry="46.9"
     class="a"
     id="ellipse3527" />
  <path
     d="M115.2 254.6c-0.2 7.2-5.1 12.8-11.2 12.7 -6.1-0.1-10.9-6-10.7-13.2 0.2-7.2 4.1-11 10.2-10.9C109.6 243.3 115.4 247.4 115.2 254.6z"
     class="a"
     id="path3529" />
  <path
     d="m 244.49323,82.613802 c 0,-1.7 0.3,-2.9 0.9,-3.8 0.6,-0.8 1.7,-1.8 3.2,-2.9 0.8,-0.5 1.4,-1.1 1.9,-1.9 0.5,-0.7 0.7,-1.6 0.7,-2.6 0,-1 -0.3,-1.8 -0.8,-2.4 -0.5,-0.6 -1.3,-0.9 -2.3,-0.9 -0.8,0 -1.5,0.2 -2,0.7 -0.5,0.5 -0.8,1.2 -0.9,2.2 l -6,0 0,-0.1 c 0,-2.5 0.8,-4.4 2.4,-5.7 1.6,-1.3 3.8,-1.9 6.5,-1.9 2.9,0 5.1,0.7 6.8,2.2 1.7,1.5 2.5,3.4 2.5,5.9 0,1.5 -0.5,2.9 -1.4,4.2 -0.9,1.3 -2,2.3 -3.4,3 -0.8,0.5 -1.3,1.1 -1.6,1.6 -0.3,0.6 -0.4,1.4 -0.4,2.4 l -6.1,0 z m 6.1,7.6 -6.1,0 0,-4.9 6.1,0 0,4.9 z"
     id="path3601"
     inkscape:connector-curvature="0" />
  <path
     d="m 107.55981,109.77158 c 0.4,-1.1 1,-1.9 1.6,-2.4 0.6,-0.4 1.6,-0.8 3,-1.2 0.7,-0.1 1.3,-0.4 1.8,-0.8 0.5,-0.4 0.9,-0.9 1.2,-1.6 0.3,-0.7 0.3,-1.3 0.1,-1.9 -0.2,-0.6 -0.7,-1 -1.4,-1.2 -0.6,-0.2 -1.1,-0.2 -1.6,0 -0.5,0.2 -0.9,0.6 -1.2,1.3 l -4.1,-1.6 0,-0.1 c 0.6,-1.699997 1.7,-2.799997 3.1,-3.299997 1.4,-0.4 3.1,-0.3 4.9,0.4 2,0.7 3.3,1.8 4.1,3.299997 0.8,1.4 0.8,3 0.2,4.7 -0.4,1 -1.1,1.9 -2,2.5 -0.9,0.6 -2,1 -3.1,1.2 -0.7,0.1 -1.2,0.4 -1.5,0.7 -0.3,0.3 -0.6,0.8 -0.9,1.5 l -4.2,-1.5 z m 2.2,6.8 -4.2,-1.6 1.3,-3.4 4.2,1.6 -1.3,3.4 z"
     id="path3603"
     inkscape:connector-curvature="0" />
  <path
     d="m 246.8475,239.78593 c -0.5,-0.7 -0.8,-1.4 -0.8,-1.9 0,-0.5 0.1,-1.3 0.5,-2.3 0.2,-0.5 0.3,-0.9 0.2,-1.4 0,-0.5 -0.2,-0.9 -0.5,-1.3 -0.3,-0.4 -0.7,-0.7 -1.1,-0.8 -0.4,-0.1 -0.8,0 -1.3,0.3 -0.3,0.3 -0.6,0.6 -0.6,1 -0.1,0.4 0,0.8 0.3,1.2 l -2.5,1.9 0,0 c -0.8,-1.1 -1.1,-2.1 -0.8,-3.2 0.3,-1.1 1,-2 2.2,-2.8 1.2,-0.9 2.4,-1.3 3.6,-1.2 1.2,0.1 2.1,0.7 2.9,1.7 0.5,0.6 0.7,1.4 0.7,2.2 0,0.8 -0.2,1.6 -0.5,2.4 -0.2,0.5 -0.2,0.9 -0.2,1.2 0.1,0.3 0.3,0.7 0.6,1.1 l -2.7,1.9 z m 5,1.3 -2.6,1.9 -1.5,-2.1 2.6,-1.9 1.5,2.1 z"
     id="path3605"
     inkscape:connector-curvature="0" />
  <polygon
     points="165.4 86.2 165.4 112.1 233.4 152.1 245.7 146.1 235.5 126.2 "
     class="d"
     id="polygon3607"
     style="fill:#f39c12;fill-opacity:1" />
  <polygon
     points="169.2 83.3 238.5 123.6 249.5 144 245.7 146.1 235.5 126.2 165.4 86.2 "
     class="f"
     id="polygon3609"
     style="fill:#b1720e;fill-opacity:1" />
  <polygon
     points="171.4 48.4 171.4 73.1 241.9 32.7 251.6 14.5 240.2 7.7 "
     class="d"
     id="polygon3611"
     style="fill:#f39c12;fill-opacity:1" />
  <polygon
     points="236.3 4.3 168.4 44.2 171.4 48.4 240.2 7.7 "
     class="f"
     id="polygon3613"
     style="fill:#b1720e;fill-opacity:1" />
  <polygon
     points="79.2 43.8 89.8 38.3 159.9 77.3 160.3 101.9 89.8 62.9 "
     class="d"
     id="polygon3615"
     style="fill:#f39c12;fill-opacity:1" />
  <polygon
     points="95.8 34 162 72.6 164.1 76 159.9 77.3 89.8 38.3 "
     class="f"
     id="polygon3617"
     style="fill:#b1720e;fill-opacity:1" />
  <polygon
     points="165.4 122.8 95.4 162.7 85.6 180.9 96.6 188.6 166.7 147.8 "
     class="d"
     id="polygon3619"
     style="fill:#f39c12;fill-opacity:1" />
  <polygon
     points="91.1 159.7 80.5 178 85.6 180.9 95.4 162.7 165.4 122.8 162 119.4 "
     class="f"
     id="polygon3621"
     style="fill:#b1720e;fill-opacity:1" />
  <polygon
     points="159.9 77.3 160.3 101.9 165 99.8 164.1 76 "
     class="g"
     id="polygon3623"
     style="fill:#000000;fill-opacity:1" />
  <polygon
     points="168.4 44.2 171.4 48.4 171.4 73.1 165.4 70.9 "
     class="g"
     id="polygon3625"
     style="fill:#000000;fill-opacity:1" />
  <path
     d="M169.6 307.3L169.6 307.3c-2.5 1-5.3 1.1-7.8 0.1l-0.2-0.1v-272h8V307.3z"
     class="h"
     id="path3627" />
  <polygon
     points="166.7 290.5 215.1 222.6 156.1 237 142.9 240.4 134 235.7 148.4 225.9 226.1 206.8 232.5 195.8 171.8 168.6 195.6 160.6 242.7 181.8 264.8 153.8 268.2 155 265.2 163.1 335.3 145.7 347.6 149.1 333.2 159.7 252.5 181.4 248.7 186.5 295.8 208.1 297.9 218.3 281.8 223.8 235.9 203.9 168.8 297.7 "
     style="fill:#332E27;opacity:0.2"
     id="polygon3629" />
  <path
     d="M161.6 35.3c0-1.2 1.8-2.2 4-2.2 2.3 0 4 1 4 2.2"
     class="h"
     id="path3631" />
  <ellipse
     cx="165.7"
     cy="35.4"
     rx="3.4"
     ry="1.8"
     fill="#595147"
     id="ellipse3633" />
  <path
     d="M98 56.1L98 56.1l2.7-5.8 1.2 0.7L97.6 60l-1.2-0.8 1-6.6 0 0 -2.9 5.5 -1.2-0.7 2-10.1 1.2 0.7 -1.4 6.5 0 0 3-5.6 0.9 0.5L98 56.1z"
     class="f"
     id="path3635"
     style="fill:#000000;fill-opacity:1" />
  <path
     d="M101.9 58l-1.1 4 -1.4-0.8 3-9.9 2.2 1.2c0.7 0.4 1.1 0.9 1.4 1.7 0.3 0.7 0.3 1.6 0 2.5 -0.1 0.5-0.3 0.9-0.6 1.2 -0.3 0.3-0.6 0.5-1 0.5 0.3 0.4 0.5 0.8 0.5 1.4 0 0.5 0 1.1-0.2 1.7l-0.2 0.7c-0.1 0.3-0.1 0.6-0.2 1 0 0.4 0 0.7 0 0.9l0 0.1 -1.4-0.9c-0.1-0.2-0.1-0.5 0-0.9 0.1-0.4 0.2-0.8 0.2-1.1l0.2-0.6c0.1-0.5 0.2-0.9 0.1-1.3 -0.1-0.3-0.3-0.6-0.5-0.8L101.9 58zM102.5 56.2l0.9 0.5c0.3 0.2 0.5 0.2 0.7 0 0.2-0.1 0.4-0.4 0.5-0.8 0.1-0.4 0.1-0.8 0-1.1 -0.1-0.3-0.2-0.6-0.5-0.7l-0.9-0.5L102.5 56.2z"
     class="f"
     id="path3637"
     style="fill:#000000;fill-opacity:1" />
  <path
     d="M111.2 63.1c-0.3 1.3-0.8 2.3-1.5 2.9 -0.7 0.6-1.4 0.7-2.2 0.2 -0.8-0.5-1.3-1.3-1.6-2.5 -0.3-1.1-0.2-2.4 0.1-3.7l0.5-1.9c0.3-1.2 0.8-2.1 1.5-2.7 0.7-0.5 1.4-0.6 2.1-0.2 0.7 0.4 1.3 1.2 1.5 2.2 0.3 1.1 0.3 2.3 0 3.6L111.2 63.1zM110.2 60.3c0.2-0.7 0.2-1.4 0.1-2 -0.1-0.6-0.3-1-0.7-1.2 -0.4-0.2-0.7-0.1-1 0.2 -0.3 0.3-0.6 0.9-0.7 1.6l-0.5 1.9c-0.2 0.8-0.2 1.5-0.2 2.1 0.1 0.6 0.3 1 0.7 1.3 0.4 0.2 0.7 0.2 1.1-0.2 0.3-0.4 0.6-1 0.8-1.7L110.2 60.3z"
     class="f"
     id="path3639"
     style="fill:#000000;fill-opacity:1" />
  <path
     d="M116.5 71.5l-1.5-0.9L114 62l0 0 -1.5 7.1 -1.5-0.9 2.4-10.8 1.4 0.8 0.9 8.2 0 0 1.4-6.9 1.5 0.8L116.5 71.5z"
     class="f"
     id="path3641"
     style="fill:#000000;fill-opacity:1" />
  <path
     d="M123.2 73.7c-0.3 0.4-0.7 0.6-1.2 0.7 -0.5 0.1-1.1 0-1.8-0.5 -0.8-0.5-1.5-1.4-1.8-2.6 -0.4-1.2-0.4-2.5-0.1-3.9l0.4-2.3c0.2-1.3 0.7-2.3 1.3-2.8 0.6-0.5 1.3-0.6 2.1-0.2 0.8 0.5 1.4 1.1 1.7 2 0.3 0.9 0.4 1.9 0.3 3.1l0 0 -1.5-0.8c0-0.6 0-1.1-0.1-1.5 -0.1-0.4-0.4-0.7-0.7-0.9 -0.4-0.2-0.7-0.1-1 0.2 -0.3 0.3-0.5 0.9-0.6 1.7l-0.4 2.4c-0.1 0.8-0.1 1.5 0 2.2 0.1 0.6 0.4 1.1 0.8 1.3 0.3 0.2 0.5 0.3 0.7 0.3 0.2 0 0.3 0 0.4-0.1l0.3-1.9 -1.1-0.6 0.3-1.8 2.6 1.5L123.2 73.7z"
     class="f"
     id="path3643"
     style="fill:#000000;fill-opacity:1" />
  <path
     d="M132.8 76.7L132.8 76.7l1.7-7.4 1.6 0.9 -2.8 11.6 -1.6-1 -0.4-8.5 0 0 -2.1 7 -1.6-1 -0.1-12.9 1.5 0.9 0 8.3 0 0 2.1-7.1 1.1 0.6L132.8 76.7z"
     class="f"
     id="path3645"
     style="fill:#000000;fill-opacity:1" />
  <path
     d="M139.9 83l-2.5-1.5 -0.6 2.4 -1.8-1.1 3.4-11.3 1.8 1 1.8 14.6 -1.9-1.1L139.9 83zM138 79.4l1.6 1 -0.5-5.1 0 0L138 79.4z"
     class="f"
     id="path3647"
     style="fill:#000000;fill-opacity:1" />
  <path
     d="M145 80.9L145 80.9l1.8-4.8 2 1.1 -2.9 7.1 -0.1 5 -1.9-1.2 0.2-5.1 -2.2-9.7 1.9 1.1L145 80.9z"
     class="f"
     id="path3649"
     style="fill:#000000;fill-opacity:1" />
  <path
     d="M104.5 179.1l-1.3-15.9 3.9-2c1.4-0.7 2.5-0.9 3.3-0.6 0.8 0.3 1.3 1.1 1.4 2.5 0.1 0.7 0 1.4-0.2 2.1 -0.2 0.7-0.5 1.3-1 1.9 0.7-0.2 1.2 0 1.5 0.4 0.4 0.4 0.6 1.1 0.6 1.9 0.1 1.5-0.1 2.8-0.7 4 -0.6 1.2-1.6 2.2-3 3L104.5 179.1zM106.3 168.3l1.3-0.7c0.6-0.3 1-0.7 1.3-1.2 0.3-0.5 0.4-1 0.3-1.5 -0.1-0.7-0.2-1-0.6-1.2 -0.3-0.1-0.8 0-1.4 0.3l-1.2 0.7L106.3 168.3zM106.6 170.7l0.3 4 1.8-1.1c0.5-0.3 0.9-0.7 1.2-1.2 0.2-0.5 0.3-1 0.3-1.6 -0.1-0.7-0.2-1.1-0.5-1.3 -0.3-0.2-0.7-0.2-1.2 0.1L106.6 170.7z"
     class="f"
     id="path3651"
     style="fill:#000000;fill-opacity:1" />
  <path
     d="M119.7 166.9l-3.2 1.9 -0.3 3.3 -2.5 1.5 1.9-16.9 2.5-1.3 4.7 12.7 -2.3 1.4L119.7 166.9zM116.7 165.8l2.1-1.2 -1.6-4.7 0 0L116.7 165.8z"
     class="f"
     id="path3653"
     style="fill:#000000;fill-opacity:1" />
  <path
     d="M123.5 167.7l-1.5-14.3 3.4-1.8c1.1-0.6 2-0.5 2.9 0.2 0.8 0.7 1.3 1.8 1.5 3.4l0.3 2.5c0.2 1.7 0 3.2-0.6 4.7 -0.6 1.5-1.4 2.6-2.5 3.2L123.5 167.7zM124.4 154.7l1 9.1 1.1-0.6c0.6-0.3 1-0.9 1.2-1.7 0.2-0.8 0.3-1.6 0.2-2.6l-0.3-2.5c-0.1-1-0.4-1.6-0.7-2 -0.4-0.4-0.9-0.5-1.4-0.2L124.4 154.7z"
     class="f"
     id="path3655"
     style="fill:#000000;fill-opacity:1" />
  <path
     d="M141 152.4L141 152.4l0-8.9 1.7-0.9 -0.1 13.6 -1.7 1 -2.4-7.2 0 0 -0.3 8.9 -1.8 1.1 -3.6-12.2 1.9-1 2.2 8 0 0 0.4-9.3 1.3-0.7L141 152.4z"
     class="f"
     id="path3657"
     style="fill:#000000;fill-opacity:1" />
  <path
     d="M148.4 150.1l-2.3 1.4 -0.1 2.7 -1.8 1.1 0.7-13.8 1.8-1 4 10.8 -1.7 1L148.4 150.1zM146.1 149l1.6-0.9 -1.4-4 0 0L146.1 149z"
     class="f"
     id="path3659"
     style="fill:#000000;fill-opacity:1" />
  <path
     d="M152.2 143.1L152.2 143.1l0.6-5.8 1.7-0.9 -1.1 8.8 0.6 4.2 -1.6 1 -0.6-4.4 -3.4-6.3 1.8-0.9L152.2 143.1z"
     class="f"
     id="path3661"
     style="fill:#000000;fill-opacity:1" />
  <path
     d="M188.9 53.1L188.9 53.1l1.2-8.2 2.2-1.3 -1.9 12.7 -2.2 1.3 -1.8-6.2 0 0 -1.6 8.3 -2.3 1.3 -2.3-10.4 2.3-1.3 1.3 6.8 0 0 1.7-8.6 1.6-0.9L188.9 53.1z"
     class="f"
     id="path3663"
     style="fill:#000000;fill-opacity:1" />
  <path
     d="M198.3 49.3l-3.1 1.8 -0.5 2.6 -2.3 1.4 2.7-13.1 2.4-1.4 3.7 9.2 -2.3 1.4L198.3 49.3zM195.6 48.8l2.1-1.2 -1.2-3.4 0 0L195.6 48.8z"
     class="f"
     id="path3665"
     style="fill:#000000;fill-opacity:1" />
  <path
     d="M204 41.7L204 41.7l1.5-5.7 2.3-1.3 -2.6 8.7 0.3 3.9 -2.2 1.3 -0.3-4 -3.6-5 2.3-1.3L204 41.7z"
     class="f"
     id="path3667"
     style="fill:#000000;fill-opacity:1" />
  <path
     d="M219.7 34.1c0.2 1.3 0 2.5-0.6 3.8 -0.6 1.3-1.5 2.2-2.6 2.9 -1.2 0.7-2.2 0.8-3 0.4 -0.8-0.4-1.3-1.3-1.4-2.6l-0.2-1.9c-0.1-1.3 0.1-2.5 0.7-3.7 0.6-1.2 1.5-2.1 2.6-2.8 1.1-0.6 2.1-0.8 2.8-0.4 0.8 0.4 1.3 1.2 1.4 2.4L219.7 34.1zM217.4 33.5c-0.1-0.7-0.3-1.2-0.7-1.5 -0.4-0.3-0.8-0.3-1.3 0 -0.6 0.3-1 0.8-1.2 1.4 -0.2 0.6-0.3 1.3-0.2 2.1l0.2 1.9c0.1 0.8 0.3 1.3 0.7 1.6 0.4 0.3 0.8 0.3 1.4-0.1 0.6-0.3 1-0.8 1.2-1.5 0.2-0.7 0.3-1.4 0.2-2.1L217.4 33.5z"
     class="f"
     id="path3669"
     style="fill:#000000;fill-opacity:1" />
  <path
     d="M226.5 30.3l-3.5 2.1 0.6 4.1 -2.1 1.2 -1.4-10.1 6-3.5 0.3 1.7 -4 2.3 0.4 2.4 3.5-2L226.5 30.3z"
     class="f"
     id="path3671"
     style="fill:#000000;fill-opacity:1" />
  <path
     d="M233.4 26.2l-3.4 2 0.7 4 -2 1.2 -1.7-9.8 5.9-3.4 0.3 1.7 -3.9 2.3 0.4 2.3 3.4-2L233.4 26.2z"
     class="f"
     id="path3673"
     style="fill:#000000;fill-opacity:1" />
  <path
     d="M183.6 115.1l-1.4-0.9 -2.2-7.4 0 0 0.1 6.1 -1.3-0.8 -0.1-9.5 1.4 0.7 2.2 7.4 0 0 0-6.2 1.4 0.8L183.6 115.1z"
     class="f"
     id="path3675"
     style="fill:#000000;fill-opacity:1" />
  <path
     d="M190 114.8c0 1.3-0.3 2.1-0.8 2.6 -0.5 0.5-1.2 0.5-2.1 0 -0.8-0.5-1.5-1.3-2-2.4 -0.5-1.1-0.8-2.2-0.8-3.4l0-1.8c0-1.2 0.2-2.1 0.7-2.6 0.5-0.5 1.2-0.6 2-0.2 0.8 0.4 1.5 1.2 2.1 2.3 0.5 1.1 0.8 2.3 0.8 3.6L190 114.8zM188.4 112c0-0.7-0.1-1.4-0.3-2 -0.2-0.6-0.5-1-1-1.2 -0.4-0.2-0.7-0.2-0.9 0.2 -0.2 0.3-0.3 0.9-0.3 1.6l0 1.8c0 0.7 0.1 1.4 0.3 2 0.2 0.6 0.5 1 0.9 1.2 0.4 0.2 0.7 0.2 0.9-0.1 0.2-0.3 0.3-0.9 0.3-1.6L188.4 112z"
     class="f"
     id="path3677"
     style="fill:#000000;fill-opacity:1" />
  <path
     d="M199.6 121L199.6 121l1.2-6.7 1.9 1 -2.1 10.1 -1.8-1.1 -1.2-7.5 0 0 -1.4 5.9 -1.6-1 -1.6-11.6 1.7 0.9 0.9 7.6 0 0 1.4-6.4 1.3 0.7L199.6 121z"
     class="f"
     id="path3679"
     style="fill:#000000;fill-opacity:1" />
  <path
     d="M207.7 127.5l-2.8-1.6 -0.5 1.9 -2-1.2 3-9.8 2.2 1.2 2.6 13.4 -2.1-1.3L207.7 127.5zM205.4 124l1.9 1.1 -0.8-4.7 0 0L205.4 124z"
     class="f"
     id="path3681"
     style="fill:#000000;fill-opacity:1" />
  <path
     d="M213.7 126.5L213.7 126.5l2.2-4.3 2.6 1.4 -3.8 6.1 -0.2 4.2 -2.3-1.4 0.1-4.3 -2.9-9.4 2.4 1.3L213.7 126.5z"
     class="f"
     id="path3683"
     style="fill:#000000;fill-opacity:1" />
</svg>
