<?xml version="1.0" encoding="UTF-8" standalone="no"?>
<svg
   xmlns:dc="http://purl.org/dc/elements/1.1/"
   xmlns:cc="http://creativecommons.org/ns#"
   xmlns:rdf="http://www.w3.org/1999/02/22-rdf-syntax-ns#"
   xmlns:svg="http://www.w3.org/2000/svg"
   xmlns="http://www.w3.org/2000/svg"
   xmlns:sodipodi="http://sodipodi.sourceforge.net/DTD/sodipodi-0.dtd"
   xmlns:inkscape="http://www.inkscape.org/namespaces/inkscape"
   width="646"
   height="646"
   viewBox="0 0 646 646"
   id="svg4673"
   version="1.1"
   inkscape:version="0.91 r13725"
   sodipodi:docname="api_component.svg">
  <metadata
     id="metadata4785">
    <rdf:RDF>
      <cc:Work
         rdf:about="">
        <dc:format>image/svg+xml</dc:format>
        <dc:type
           rdf:resource="http://purl.org/dc/dcmitype/StillImage" />
      </cc:Work>
    </rdf:RDF>
  </metadata>
  <defs
     id="defs4783" />
  <sodipodi:namedview
     pagecolor="#ffffff"
     bordercolor="#666666"
     borderopacity="1"
     objecttolerance="10"
     gridtolerance="10"
     guidetolerance="10"
     inkscape:pageopacity="0"
     inkscape:pageshadow="2"
     inkscape:window-width="1535"
     inkscape:window-height="876"
     id="namedview4781"
     showgrid="false"
     inkscape:zoom="0.73065015"
     inkscape:cx="442.25422"
     inkscape:cy="329.85597"
     inkscape:window-x="65"
     inkscape:window-y="24"
     inkscape:window-maximized="1"
     inkscape:current-layer="svg4673" />
  <style
     type="text/css"
     id="style4675">
        .st0{fill:#273942;}
        .st1{fill:#B7CDD8;}
        .st2{fill:#E2E2F7;}
        .st3{fill:#52677A;}
        .st4{fill:#354F5C;}
        .st5{fill:#CE521F;}
        .st6{fill:#EBEBEB;}
        .st7{fill:#8E96A3;}
        .st8{fill:#3D4D5C;}
        .st9{fill:#3E9697;}
        .st10{fill:#68B7CE;}
        .st11{fill:#E8E8E8;}
        .st12{fill:#FFFFFF;}
        .st13{fill:#828282;}
        .st14{fill:#CCCCCC;}
        .st15{fill:#606060;}
        .st16{fill:#C6C6C6;}
        .st17{opacity:0.15;}
        .st18{fill:#1D1E1C;}
        .st19{fill:#FFD700;}
        .st20{fill:#FF9700;}
        .st21{fill:#FFFFE8;}
        .st22{fill:#F2DAB8;}
        .st23{fill:#D44D41;}
        .st24{opacity:0.3;}
        .st25{opacity:0.3;fill:#FFFFFF;}
        .st26{fill:#F01C01;}
        .st27{fill:#DBDAD9;}
        .st28{opacity:0.4;fill:#FFFFFF;}
        .st29{opacity:0.2;}
        .st30{opacity:0.2;fill:#020202;}
        .st31{fill:#F3554B;}
        .st32{fill:#BF2C28;}
        .st33{fill:#1F6A7B;}
        .st34{fill:#0594AF;}
        .st35{fill:#38A9B4;}
        .st36{opacity:0.2;fill:#1D1E1C;}
        .st37{opacity:0.64;fill:#A6D9ED;}
        .st38{fill-rule:evenodd;clip-rule:evenodd;fill:#F0F0F0;}
        .st39{fill-rule:evenodd;clip-rule:evenodd;fill:#E1DDDD;}
        .st40{fill-rule:evenodd;clip-rule:evenodd;fill:#FFFFFF;}
        .st41{fill-rule:evenodd;clip-rule:evenodd;fill:#AF3737;}
        .st42{fill-rule:evenodd;clip-rule:evenodd;fill:#990000;}
        .st43{fill:#990000;}
        .st44{fill:#510000;}
        .st45{opacity:0.5;fill-rule:evenodd;clip-rule:evenodd;fill:#8E2525;}
        .st46{fill:#2BA2B2;}
        .st47{fill:#34AAC0;}
        .st48{fill:#F69F00;}
        .st49{fill:#F59E00;}
        .st50{opacity:0.1;}
        .st51{fill:#ED9406;}
        .st52{fill:#C6006D;}
        .st53{fill:#A50263;}
        .st54{fill:#6AC700;}
        .st55{fill:#5B9904;}
        .st56{fill:#070707;}
    </style>
  <ellipse
     class="st17"
     cx="349"
     cy="531.8"
     rx="65.6"
     ry="25.2"
     id="ellipse4677" />
  <path
     class="st18"
     d="M316.4 223.2c0 0-10.9 0.8-7.9 7.8 1.7 3.9 4.9 5.4 7.3 5.9 2.2 0.5 4.4-0.5 5.6-2.5 0.6-1.1 1.3-2.5 2-4.5 2.6-7.7 0.8-8.8-1-10 -3.1-2.1-12.6-1.7-12.6-1.7L316.4 223.2z"
     id="path4685" />
  <path
     class="st18"
     d="M352.8 150.9c0 0-2.1-8.4 4-8 3.4 0.2 5.3 2.2 6.3 3.9 0.9 1.5 0.7 3.5-0.5 4.9 -0.7 0.8-1.6 1.7-2.9 2.7 -5.3 4.1-6.5 3-7.9 1.9 -2.3-1.8-4.5-9.1-4.5-9.1L352.8 150.9z"
     id="path4689" />
  <path
     class="st18"
     d="M338.3 135.8c0 0-4.8-6.9 0.6-7.4 3-0.3 5.4 1.2 6.8 2.5 1.3 1.2 1.8 2.9 1.3 4.2 -0.3 0.7-0.8 1.6-1.5 2.7 -3.1 4.2-4.5 3.4-6.1 2.7 -2.6-1.2-7.1-7.1-7.1-7.1L338.3 135.8z"
     id="path4693" />
  <path
     class="st19"
     d="M316.8 507c10.4-23.8-3.1-66.9-3.1-66.9l-46.8-32.7 -46.8-32.7c0 0-45 2.1-63.8 20.1 -18.8 18-41.4 68.1-41.4 68.1l27.2-13.4c0 0-37.1 40.1-36.4 101.5 0.6 61.4-0.5 88-0.5 88s24.6-10.2 82.5-30.7c57.9-20.5 82.8-69.1 82.8-69.1l-3.2 30.1C267 569.3 306.3 530.8 316.8 507z"
     id="path4695" />
  <path
     class="st20"
     d="M313.7 440.1c0 0 13.5 43 3.1 66.9S267 569.3 267 569.3l3.2-30.1c0 0-24.9 48.6-82.8 69.1S105 639 105 639l161.9-231.6L313.7 440.1z"
     id="path4697" />
  <path
     class="st21"
     d="M266.4 408l-35.1-24.5c0 0-32.5-1-45.1 10.3 -12.6 11.3-26.2 44.3-26.2 44.3l18.9-7.7c0 0-24.6 25.4-20.8 67.4 3.2 35.9 4.2 54.3 4.4 58.9L266.4 408z"
     id="path4699" />
  <path
     class="st22"
     d="M266.5 407.9l35.1 24.5c0 0 12.1 30.1 5.8 45.9 -6.2 15.7-32.6 39.9-32.6 39.9l0.7-20.4c0 0-15.3 31.9-56.1 42.7 -34.8 9.3-52.5 14.8-56.8 16.2L266.5 407.9z"
     id="path4701" />
  <path
     class="st23"
     d="M439.1 355.3c0 0 16.1 43 14.5 58.4s-15.3 38.7-39.9 63.9c-24.6 25.2-44.1 40-44.1 40l-14.7-81.1L439.1 355.3z"
     id="path4703" />
  <path
     class="st24"
     d="M354.9 436.6l3.4 19c13.4-7.3 30.7-20.7 44.2-30.1 13.3-9.3 32.5-36.7 42.8-52.1 -3.3-10.2-6.2-18.1-6.2-18.1L354.9 436.6z"
     id="path4705" />
  <path
     class="st23"
     d="M257.3 221.7c0 0-45.9-0.4-59.8 6.5 -13.9 6.9-31.1 27.6-46.3 59.4s-22.4 55.2-22.4 55.2l81.2-14.1L257.3 221.7z"
     id="path4707" />
  <path
     class="st25"
     d="M246.8 220.9c-14.3 0.3-40 1.5-49.8 6.4 -13.9 6.9-31.1 27.6-46.3 59.4 -4.3 8.9-7.9 17.2-11 24.5 14.8-18.1 44.4-50.1 53-60.1C200.7 241.9 230.4 228.1 246.8 220.9z"
     id="path4709" />
  <path
     class="st26"
     d="M537.5 186.4c12-44.1 4.5-125.7 1.2-155.1 -0.7-5.9-6.3-9.8-12-8.4 -28.8 7-108 28-145.3 54.4 -46 32.6-90.4 79.5-121.7 129 -30.7 48.5-60.8 121.4-60.7 147 0 1 0.2 2 0.5 3 2.3 6.6 13.7 33.2 58.1 64.3 44.4 31 73.3 32.6 80.3 32.5 1 0 2-0.2 3-0.5 24.1-8.7 82.2-62 117.2-107.5C493.9 298.7 522.7 240.8 537.5 186.4z"
     id="path4711" />
  <path
     class="st23"
     d="M401.3 66.2c-7.7 3.9-14.7 8-20.7 12.2 -46 32.6-90.4 79.5-121.7 129 -13.4 21.2-26.6 46.9-37.3 71.4 18.3 24.7 45.9 58 77.3 82.7 36 28.3 74.9 42.7 98.7 49.5 21-19.6 43-43.1 59.8-64.8 35.7-46.4 64.6-104.3 79.3-158.6 2-7.2 3.4-15.4 4.4-24.3 -18.2-18-41.6-40-63.8-57.1C451.3 86.1 421.7 73.4 401.3 66.2z"
     id="path4713" />
  <path
     class="st27"
     d="M379.4 78.7c-45.3 32.5-88.9 78.8-119.8 127.7 -9.3 14.7-18.5 31.6-26.9 48.8l0 0.1c0 0 9 43.2 76.3 91.8 51.5 37.3 94.9 40.6 112.4 40.2 13.3-13.8 26.1-28.3 36.7-42.2 35.7-46.4 64.6-104.3 79.3-158.6 0.2-0.7 0.4-1.5 0.6-2.3 -18.3-19.7-43.8-44.5-70.9-63.4C432.8 96.7 398.7 84.4 379.4 78.7z"
     id="path4715" />
  <path
     class="st28"
     d="M379.3 79.1c-46 32.6-90.4 79.5-121.7 129s-62 124.3-60.6 148.5c0 0 2.2 9 12.5 23 9.1-35.6 29.7-97.3 74-168.3C328.2 139.9 425 73.1 489.2 34.1 453.5 44.3 405.8 60.4 379.3 79.1z"
     id="path4717" />
  <path
     class="st29"
     d="M536.7 187.5c-14.8 54.4-43.6 112.3-79.3 158.6s-95.4 100.9-118.6 108c0 0-9.2 1-25.9-3.9 30.3-20.8 81.1-61.3 132.5-127.4 51.8-66.5 81.2-180.3 95.8-254C543.9 105.9 545.2 156.2 536.7 187.5z"
     id="path4719" />
  <ellipse
     transform="matrix(0.5728 -0.8197 0.8197 0.5728 20.8644 425.6071)"
     class="st30"
     cx="418.8"
     cy="192.8"
     rx="58.2"
     ry="58.2"
     id="ellipse4721" />
  <ellipse
     transform="matrix(0.5728 -0.8197 0.8197 0.5728 26.0083 422.0111)"
     class="st31"
     cx="417.9"
     cy="186.1"
     rx="58.2"
     ry="58.2"
     id="ellipse4723" />
  <path
     class="st32"
     d="M383.6 235.2c-27.1-18.9-33.7-56.4-14.8-83.5 18.9-27.1 56.4-33.7 83.5-14.8s33.7 56.4 14.8 83.5S410.7 254.1 383.6 235.2zM450.3 139.7c-25.6-17.9-60.9-11.6-78.7 14 -17.9 25.6-11.6 60.9 14 78.7 25.6 17.9 60.9 11.6 78.7-14S475.8 157.6 450.3 139.7z"
     id="path4725" />
  <ellipse
     transform="matrix(0.5728 -0.8197 0.8197 0.5728 25.2004 423.3459)"
     class="st33"
     cx="418.8"
     cy="187.5"
     rx="44.9"
     ry="44.9"
     id="ellipse4727"
     style="fill:#b1720e;fill-opacity:1" />
  <path
     class="st34"
     d="M454.9 213c3.2-4.6 5.4-9.6 6.7-14.8 -1.5-9.2-6.6-17.8-14.8-23.5 -16.2-11.3-38.6-7.4-49.9 8.8 -9.8 14.1-8.2 32.7 3 44.8C419.2 236.8 442.4 230.9 454.9 213z"
     id="path4729"
     style="fill:#f39c12;fill-opacity:1" />
  <ellipse
     transform="matrix(0.5728 -0.8197 0.8197 0.5728 -85.2533 408.6919)"
     class="st30"
     cx="349.5"
     cy="286.1"
     rx="32.1"
     ry="32.1"
     id="ellipse4731" />
  <ellipse
     transform="matrix(0.5728 -0.8197 0.8197 0.5728 -82.4164 406.7087)"
     class="st31"
     cx="349"
     cy="282.4"
     rx="32.1"
     ry="32.1"
     id="ellipse4733" />
  <path
     class="st32"
     d="M329.6 310.1c-15.3-10.7-19-31.8-8.3-47.1 10.7-15.3 31.8-19 47.1-8.3s19 31.8 8.3 47.1S344.9 320.8 329.6 310.1zM366.4 257.5c-13.7-9.6-32.7-6.2-42.4 7.5 -9.6 13.7-6.2 32.7 7.5 42.4 13.7 9.6 32.7 6.2 42.4-7.5C383.5 286.1 380.2 267.1 366.4 257.5z"
     id="path4735" />
  <ellipse
     transform="matrix(0.5728 -0.8197 0.8197 0.5728 -82.862 407.4448)"
     class="st33"
     cx="349.5"
     cy="283.2"
     rx="24.8"
     ry="24.8"
     id="ellipse4737"
     style="fill:#b1720e;fill-opacity:1" />
  <path
     class="st34"
     d="M369.4 297.3c1.8-2.5 3-5.3 3.7-8.1 -0.8-5.1-3.6-9.8-8.2-13 -8.9-6.3-21.3-4.1-27.5 4.9 -5.4 7.8-4.5 18 1.7 24.7C349.7 310.4 362.5 307.1 369.4 297.3z"
     id="path4739"
     style="fill:#f39c12;fill-opacity:1" />
  <path
     class="st23"
     d="M318.9 354.5l6.6-34 -29.7 17.9c0 0-26.3 36.9-35.4 56.8 -9.1 19.9-32.3 64.7-32.3 64.7s34-37.2 49.6-52.6C293.3 391.9 318.9 354.5 318.9 354.5z"
     id="path4741" />
  <path
     class="st24"
     d="M325.1 321.1l-6.6 34c0 0-25.6 37.4-41.2 52.8 -15.6 15.4-49.6 52.6-49.6 52.6L325.1 321.1z"
     id="path4743" />
  <flowRoot
     xml:space="preserve"
     id="flowRoot5327"
     style="font-style:normal;font-weight:normal;font-size:40px;line-height:125%;font-family:sans-serif;letter-spacing:0px;word-spacing:0px;fill:#000000;fill-opacity:1;stroke:none;stroke-width:1px;stroke-linecap:butt;stroke-linejoin:miter;stroke-opacity:1"><flowRegion
       id="flowRegion5329"><rect
         id="rect5331"
         width="39.690678"
         height="42.427967"
         x="330.52756"
         y="263.46399" /></flowRegion><flowPara
       id="flowPara5333">J</flowPara></flowRoot></svg>
